# Blender v2.90.0 OBJ File: 'Cristales.blend'
# www.blender.org
mtllib Mineral1.mtl
o Mineral1_Cylinder.006
v 0.056170 -0.089165 0.207797
v 0.006787 1.796184 1.115176
v 0.021763 -0.232091 0.470680
v -0.235396 1.591165 1.630331
v -0.283416 -0.271552 0.559319
v -0.746032 1.475592 1.794293
v -0.538164 -0.200072 0.388323
v -1.121595 1.530798 1.432564
v -0.456815 -0.062869 0.116656
v -1.039661 1.827843 1.016557
v -0.158641 -0.014977 0.010132
v -0.529350 1.944934 0.879908
v -0.738883 2.524053 1.900042
v -0.621728 2.583536 1.687919
v -1.064098 2.467340 1.865595
v -1.206665 2.585281 1.686474
v -1.112431 2.575289 1.503409
v -0.810771 2.594870 1.478267
v 0.059475 -0.210989 -0.586703
v 0.478232 2.955682 -0.897370
v 0.392237 -0.274568 -0.310604
v 1.059052 2.902892 -0.645688
v 0.470107 -0.254844 0.260405
v 1.116264 2.981783 -0.039261
v 0.126971 -0.170375 0.465866
v 0.454760 3.046119 0.562706
v -0.325556 -0.091048 0.223243
v -0.082370 3.128278 0.214285
v -0.464918 -0.156631 -0.359356
v -0.013970 3.133362 -0.500385
v 1.073906 4.356652 -0.595811
v 0.730193 4.112858 -0.574605
v 1.095270 4.348948 -0.409488
v 0.530175 4.043354 0.201665
v 0.271932 3.948000 0.014839
v 0.238253 3.974583 -0.338639
v -0.540323 -0.198114 -0.414261
v -1.332143 1.784366 -0.579609
v -0.175897 -0.106138 -0.245619
v -0.768763 1.902034 -0.381788
v -0.117355 -0.103571 0.084248
v -0.757038 1.878249 0.216211
v -0.367571 -0.146891 0.290472
v -1.240377 1.754112 0.491208
v -0.770029 -0.304922 0.124826
v -1.580843 1.449119 0.281863
v -0.797065 -0.311579 -0.314245
v -1.676039 1.514465 -0.177604
v -1.237604 2.436694 -0.259344
v -1.462419 2.436697 -0.137145
v -1.148763 2.392348 -0.041551
v -1.407116 2.369276 0.214284
v -1.578868 2.250911 0.192824
v -1.593563 2.190010 -0.023447
v 0.251318 -0.276035 -0.541408
v 0.268937 1.308429 -1.587461
v 0.193075 -0.127373 -0.274455
v 0.141569 1.513463 -1.231406
v -0.021891 -0.120183 -0.188861
v -0.369813 1.579794 -0.987175
v -0.331549 -0.245504 -0.315969
v -0.664630 1.314153 -1.175145
v -0.286483 -0.400756 -0.570581
v -0.421458 0.967075 -1.469375
v 0.080762 -0.414828 -0.709945
v -0.065893 0.888479 -1.723935
v -0.071880 1.680718 -1.519645
v -0.106485 1.543028 -1.686268
v -0.323236 1.653760 -1.409014
v -0.433683 1.528747 -1.553724
v -0.374623 1.281018 -1.610967
v -0.220221 1.286418 -1.737292
v 0.449556 -0.291603 -0.525818
v 1.966665 1.162580 -0.655650
v 0.497475 -0.394388 -0.197260
v 2.170187 1.070072 -0.255898
v 0.360470 -0.270540 0.028322
v 1.809755 1.141163 0.163683
v 0.184853 -0.048799 -0.068508
v 1.329062 1.305470 0.296324
v 0.150679 0.044772 -0.372336
v 1.193406 1.607993 -0.299520
v 0.279565 -0.072929 -0.596160
v 1.484922 1.410797 -0.683844
v 2.275574 1.517751 -0.237735
v 2.163666 1.624743 -0.397244
v 2.097224 1.560162 0.005107
v 1.856898 1.806741 0.008877
v 1.750255 1.867578 -0.189526
v 1.912989 1.750936 -0.401778
v 0.507650 -0.400685 0.348593
v 1.059160 0.579929 0.869883
v 0.375648 -0.461467 0.529314
v 0.809312 0.457845 1.414338
v 0.123769 -0.341434 0.497144
v 0.067823 0.268025 1.302543
v 0.036536 -0.142616 0.265192
v 0.085900 0.848238 0.967698
v 0.169425 -0.071075 0.071016
v 0.462748 0.991588 0.676888
v 0.379924 -0.212312 0.110250
v 0.953156 0.721685 0.559505
v 0.867160 0.916800 1.485846
v 0.938071 0.982261 1.153476
v 0.481864 0.886240 1.468087
v 0.436163 1.357267 1.270735
v 0.684815 1.248274 1.005189
v 0.961685 1.066255 0.860066
v 0.498396 -0.319504 0.110698
v 1.419990 1.114208 0.504740
v 0.428373 -0.339546 0.329386
v 1.335256 1.488258 0.820173
v 0.234643 -0.212809 0.336846
v 0.737709 1.527904 0.937348
v 0.095930 -0.096078 0.142583
v 0.228760 1.489575 0.429207
v 0.200205 -0.100104 -0.079863
v 0.627022 1.661016 0.187765
v 0.391372 -0.219352 -0.106080
v 1.119554 1.221239 0.304436
v 1.332376 2.173009 0.825049
v 1.302168 2.281415 0.572828
v 1.084641 2.078252 0.863572
v 1.058221 2.321024 0.723550
v 1.042211 2.442302 0.487919
v 1.191727 2.319717 0.408208
vt 1.000000 0.500000
vt 1.000000 1.000000
vt 0.833333 1.000000
vt 0.833333 0.500000
vt 0.666667 1.000000
vt 0.666667 0.500000
vt 0.500000 1.000000
vt 0.500000 0.500000
vt 0.333333 1.000000
vt 0.333333 0.500000
vt 0.500000 1.000000
vt 0.333333 1.000000
vt 0.166667 1.000000
vt 0.166667 0.500000
vt -0.000000 1.000000
vt -0.000000 0.500000
vt 0.750000 0.490000
vt 0.957846 0.370000
vt 0.957846 0.130000
vt 0.750000 0.010000
vt 0.250000 0.490000
vt 0.042154 0.370000
vt 0.042154 0.130000
vt 0.250000 0.010000
vt 0.833333 1.000000
vt 0.666667 1.000000
vt 0.166667 1.000000
vt 1.000000 1.000000
vt -0.000000 1.000000
vt 0.457846 0.370000
vt 0.457846 0.130000
vt 0.542154 0.370000
vt 0.542154 0.130000
vt 1.000000 0.500000
vt 1.000000 1.000000
vt 0.833333 1.000000
vt 0.833333 0.500000
vt 0.666667 1.000000
vt 0.666667 0.500000
vt 0.500000 1.000000
vt 0.500000 0.500000
vt 0.333333 1.000000
vt 0.333333 0.500000
vt 0.500000 1.000000
vt 0.333333 1.000000
vt 0.166667 1.000000
vt 0.166667 0.500000
vt -0.000000 1.000000
vt -0.000000 0.500000
vt 0.750000 0.490000
vt 0.957846 0.370000
vt 0.957846 0.130000
vt 0.750000 0.010000
vt 0.250000 0.490000
vt 0.042154 0.370000
vt 0.042154 0.130000
vt 0.250000 0.010000
vt 0.833333 1.000000
vt 0.666667 1.000000
vt 0.166667 1.000000
vt 1.000000 1.000000
vt -0.000000 1.000000
vt 0.457846 0.370000
vt 0.457846 0.130000
vt 0.542154 0.370000
vt 0.542154 0.130000
vt 1.000000 0.500000
vt 1.000000 1.000000
vt 0.833333 1.000000
vt 0.833333 0.500000
vt 0.666667 1.000000
vt 0.666667 0.500000
vt 0.500000 1.000000
vt 0.500000 0.500000
vt 0.333333 1.000000
vt 0.333333 0.500000
vt 0.500000 1.000000
vt 0.333333 1.000000
vt 0.166667 1.000000
vt 0.166667 0.500000
vt -0.000000 1.000000
vt -0.000000 0.500000
vt 0.750000 0.490000
vt 0.957846 0.370000
vt 0.957846 0.130000
vt 0.750000 0.010000
vt 0.250000 0.490000
vt 0.042154 0.370000
vt 0.042154 0.130000
vt 0.250000 0.010000
vt 0.833333 1.000000
vt 0.666667 1.000000
vt 0.166667 1.000000
vt 1.000000 1.000000
vt -0.000000 1.000000
vt 0.457846 0.370000
vt 0.457846 0.130000
vt 0.542154 0.370000
vt 0.542154 0.130000
vt 1.000000 0.500000
vt 1.000000 1.000000
vt 0.833333 1.000000
vt 0.833333 0.500000
vt 0.666667 1.000000
vt 0.666667 0.500000
vt 0.500000 1.000000
vt 0.500000 0.500000
vt 0.333333 1.000000
vt 0.333333 0.500000
vt 0.500000 1.000000
vt 0.333333 1.000000
vt 0.166667 1.000000
vt 0.166667 0.500000
vt -0.000000 1.000000
vt -0.000000 0.500000
vt 0.750000 0.490000
vt 0.957846 0.370000
vt 0.957846 0.130000
vt 0.750000 0.010000
vt 0.250000 0.490000
vt 0.042154 0.370000
vt 0.042154 0.130000
vt 0.250000 0.010000
vt 0.833333 1.000000
vt 0.666667 1.000000
vt 0.166667 1.000000
vt 1.000000 1.000000
vt -0.000000 1.000000
vt 0.457846 0.370000
vt 0.457846 0.130000
vt 0.542154 0.370000
vt 0.542154 0.130000
vt 1.000000 0.500000
vt 1.000000 1.000000
vt 0.833333 1.000000
vt 0.833333 0.500000
vt 0.666667 1.000000
vt 0.666667 0.500000
vt 0.500000 1.000000
vt 0.500000 0.500000
vt 0.333333 1.000000
vt 0.333333 0.500000
vt 0.500000 1.000000
vt 0.333333 1.000000
vt 0.166667 1.000000
vt 0.166667 0.500000
vt -0.000000 1.000000
vt -0.000000 0.500000
vt 0.750000 0.490000
vt 0.957846 0.370000
vt 0.957846 0.130000
vt 0.750000 0.010000
vt 0.250000 0.490000
vt 0.042154 0.370000
vt 0.042154 0.130000
vt 0.250000 0.010000
vt 0.833333 1.000000
vt 0.666667 1.000000
vt 0.166667 1.000000
vt 1.000000 1.000000
vt -0.000000 1.000000
vt 0.457846 0.370000
vt 0.457846 0.130000
vt 0.542154 0.370000
vt 0.542154 0.130000
vt 1.000000 0.500000
vt 1.000000 1.000000
vt 0.833333 1.000000
vt 0.833333 0.500000
vt 0.666667 1.000000
vt 0.666667 0.500000
vt 0.500000 1.000000
vt 0.500000 0.500000
vt 0.333333 1.000000
vt 0.333333 0.500000
vt 0.500000 1.000000
vt 0.333333 1.000000
vt 0.166667 1.000000
vt 0.166667 0.500000
vt -0.000000 1.000000
vt -0.000000 0.500000
vt 0.750000 0.490000
vt 0.957846 0.370000
vt 0.957846 0.130000
vt 0.750000 0.010000
vt 0.250000 0.490000
vt 0.042154 0.370000
vt 0.042154 0.130000
vt 0.250000 0.010000
vt 0.833333 1.000000
vt 0.666667 1.000000
vt 0.166667 1.000000
vt 1.000000 1.000000
vt -0.000000 1.000000
vt 0.457846 0.370000
vt 0.457846 0.130000
vt 0.542154 0.370000
vt 0.542154 0.130000
vt 1.000000 0.500000
vt 1.000000 1.000000
vt 0.833333 1.000000
vt 0.833333 0.500000
vt 0.666667 1.000000
vt 0.666667 0.500000
vt 0.500000 1.000000
vt 0.500000 0.500000
vt 0.333333 1.000000
vt 0.333333 0.500000
vt 0.500000 1.000000
vt 0.333333 1.000000
vt 0.166667 1.000000
vt 0.166667 0.500000
vt -0.000000 1.000000
vt -0.000000 0.500000
vt 0.750000 0.490000
vt 0.957846 0.370000
vt 0.957846 0.130000
vt 0.750000 0.010000
vt 0.250000 0.490000
vt 0.042154 0.370000
vt 0.042154 0.130000
vt 0.250000 0.010000
vt 0.833333 1.000000
vt 0.666667 1.000000
vt 0.166667 1.000000
vt 1.000000 1.000000
vt -0.000000 1.000000
vt 0.457846 0.370000
vt 0.457846 0.130000
vt 0.542154 0.370000
vt 0.542154 0.130000
vn 0.9503 -0.0879 0.2986
vn 0.3414 -0.4751 0.8110
vn -0.5985 -0.5572 0.5756
vn -0.9409 -0.1367 -0.3098
vn -0.9624 0.0268 -0.2702
vn -0.3326 0.3246 -0.8855
vn 0.5440 0.4003 -0.7375
vn 0.0150 -0.8934 -0.4491
vn -0.0199 0.9998 0.0082
vn 0.1725 -0.1000 0.9799
vn -0.2514 0.5531 -0.7943
vn 0.8132 0.2872 0.5062
vn -0.7381 -0.2453 0.6285
vn 0.4727 0.7169 -0.5125
vn -0.0712 0.9067 0.4158
vn 0.0275 -0.9085 -0.4170
vn 0.4767 -0.1694 -0.8626
vn 0.9735 -0.2086 -0.0942
vn 0.6188 -0.0688 0.7826
vn -0.5084 0.0334 0.8605
vn -0.5246 0.3618 0.7706
vn -0.9930 0.1070 0.0493
vn -0.5215 0.0106 -0.8532
vn -0.2192 -0.9741 0.0558
vn -0.2949 0.9548 0.0378
vn 0.9952 -0.0089 -0.0978
vn -0.9393 0.3425 -0.0204
vn 0.2176 0.1161 -0.9691
vn 0.6673 0.2060 0.7157
vn -0.5031 0.3214 -0.8022
vn -0.5328 0.8457 -0.0311
vn -0.1364 -0.9873 0.0814
vn 0.3564 0.0532 -0.9328
vn 0.9534 0.2945 -0.0655
vn 0.5226 0.1314 0.8424
vn -0.3167 -0.2358 0.9187
vn -0.5116 0.1586 0.8445
vn -0.8973 -0.4312 0.0939
vn -0.5289 -0.2382 -0.8146
vn 0.2151 -0.9766 0.0027
vn -0.7531 0.6502 0.1003
vn 0.7751 0.6304 -0.0429
vn -0.9858 0.0493 0.1606
vn 0.0208 0.4382 -0.8986
vn 0.4120 0.5483 0.7277
vn -0.8155 0.2125 -0.5383
vn 0.0867 0.9815 0.1708
vn 0.3825 -0.9238 -0.0201
vn 0.9679 0.1399 0.2089
vn 0.4049 0.4627 0.7886
vn -0.5770 0.2712 0.7704
vn -0.9310 -0.2855 -0.2276
vn -0.8318 -0.1001 -0.5459
vn -0.4529 -0.5502 -0.7016
vn 0.7430 -0.3663 -0.5601
vn 0.1531 -0.8545 0.4964
vn -0.4677 0.2337 -0.8524
vn 0.1784 0.9437 0.2787
vn -0.6018 -0.2556 -0.7566
vn 0.6687 0.6706 -0.3211
vn -0.7001 0.7139 0.0146
vn 0.2891 0.0729 -0.9545
vn -0.2828 0.7940 -0.5382
vn 0.1643 -0.8322 0.5296
vn 0.6075 -0.6894 -0.3946
vn 0.5368 -0.5985 0.5947
vn -0.0330 -0.1478 0.9885
vn -0.7682 0.5197 0.3738
vn -0.4492 0.7527 0.4814
vn -0.6105 0.4473 -0.6536
vn 0.0584 -0.1274 -0.9901
vn -0.7558 -0.6476 -0.0969
vn 0.4862 0.8723 -0.0521
vn 0.7353 -0.2300 0.6375
vn -0.2372 0.7736 -0.5876
vn 0.8451 -0.1227 -0.5204
vn 0.2896 0.1973 0.9366
vn 0.2453 0.4029 -0.8818
vn 0.6395 0.7356 0.2237
vn -0.7672 -0.6321 -0.1088
vn 0.7676 -0.5875 0.2560
vn -0.0462 -0.7357 0.6757
vn -0.9974 -0.0517 0.0506
vn -0.7060 0.4606 -0.5380
vn -0.4667 0.7436 -0.4788
vn 0.1423 0.4135 -0.8993
vn 0.8340 -0.2374 -0.4981
vn -0.3255 -0.7840 -0.5285
vn 0.6186 0.7385 0.2683
vn -0.0771 -0.1819 0.9803
vn 0.1591 0.6838 -0.7121
vn 0.9416 -0.0670 0.3301
vn -0.7639 0.2754 0.5836
vn 0.9789 0.1950 -0.0607
vn 0.3306 0.6552 0.6793
vn -0.3774 -0.7918 -0.4803
vn 0.6656 -0.5187 0.5366
vn 0.0812 -0.3207 0.9437
vn -0.7368 -0.0392 0.6750
vn -0.7004 0.2291 -0.6760
vn -0.7395 0.6435 -0.1976
vn 0.2279 0.1224 -0.9660
vn 0.6598 -0.1741 -0.7310
vn -0.5063 -0.8402 -0.1941
vn 0.4693 0.8612 0.1951
vn 0.1809 0.0045 0.9835
vn 0.1939 0.1578 -0.9682
vn 0.9958 0.0623 0.0665
vn -0.6256 0.4285 0.6519
vn 0.6760 0.0693 -0.7336
vn 0.1644 0.7466 0.6447
vn -0.5049 -0.8439 -0.1815
usemtl None
s off
f 1/1/1 2/2/1 4/3/1 3/4/1
f 3/4/2 4/3/2 6/5/2 5/6/2
f 5/6/3 6/5/3 8/7/3 7/8/3
f 7/8/4 8/7/4 10/9/4 9/10/4
f 10/9/5 8/7/5 16/11/5 17/12/5
f 9/10/6 10/9/6 12/13/6 11/14/6
f 11/14/7 12/13/7 2/15/7 1/16/7
f 1/17/8 3/18/8 5/19/8 7/20/8
f 14/21/9 18/22/9 17/23/9 16/24/9
f 6/5/10 4/3/10 13/25/10 15/26/10
f 12/13/11 10/9/11 17/12/11 18/27/11
f 4/3/12 2/2/12 14/28/12 13/25/12
f 8/7/13 6/5/13 15/26/13 16/11/13
f 2/15/14 12/13/14 18/27/14 14/29/14
f 13/30/15 14/21/15 16/24/15 15/31/15
f 11/32/16 1/17/16 7/20/16 9/33/16
f 19/34/17 20/35/17 22/36/17 21/37/17
f 21/37/18 22/36/18 24/38/18 23/39/18
f 23/39/19 24/38/19 26/40/19 25/41/19
f 25/41/20 26/40/20 28/42/20 27/43/20
f 28/42/21 26/40/21 34/44/21 35/45/21
f 27/43/22 28/42/22 30/46/22 29/47/22
f 29/47/23 30/46/23 20/48/23 19/49/23
f 19/50/24 21/51/24 23/52/24 25/53/24
f 32/54/25 36/55/25 35/56/25 34/57/25
f 24/38/26 22/36/26 31/58/26 33/59/26
f 30/46/27 28/42/27 35/45/27 36/60/27
f 22/36/28 20/35/28 32/61/28 31/58/28
f 26/40/29 24/38/29 33/59/29 34/44/29
f 20/48/30 30/46/30 36/60/30 32/62/30
f 31/63/31 32/54/31 34/57/31 33/64/31
f 29/65/32 19/50/32 25/53/32 27/66/32
f 37/67/33 38/68/33 40/69/33 39/70/33
f 39/70/34 40/69/34 42/71/34 41/72/34
f 41/72/35 42/71/35 44/73/35 43/74/35
f 43/74/36 44/73/36 46/75/36 45/76/36
f 46/75/37 44/73/37 52/77/37 53/78/37
f 45/76/38 46/75/38 48/79/38 47/80/38
f 47/80/39 48/79/39 38/81/39 37/82/39
f 37/83/40 39/84/40 41/85/40 43/86/40
f 50/87/41 54/88/41 53/89/41 52/90/41
f 42/71/42 40/69/42 49/91/42 51/92/42
f 48/79/43 46/75/43 53/78/43 54/93/43
f 40/69/44 38/68/44 50/94/44 49/91/44
f 44/73/45 42/71/45 51/92/45 52/77/45
f 38/81/46 48/79/46 54/93/46 50/95/46
f 49/96/47 50/87/47 52/90/47 51/97/47
f 47/98/48 37/83/48 43/86/48 45/99/48
f 55/100/49 56/101/49 58/102/49 57/103/49
f 57/103/50 58/102/50 60/104/50 59/105/50
f 59/105/51 60/104/51 62/106/51 61/107/51
f 61/107/52 62/106/52 64/108/52 63/109/52
f 64/108/53 62/106/53 70/110/53 71/111/53
f 63/109/54 64/108/54 66/112/54 65/113/54
f 65/113/55 66/112/55 56/114/55 55/115/55
f 55/116/56 57/117/56 59/118/56 61/119/56
f 68/120/57 72/121/57 71/122/57 70/123/57
f 60/104/58 58/102/58 67/124/58 69/125/58
f 66/112/59 64/108/59 71/111/59 72/126/59
f 58/102/60 56/101/60 68/127/60 67/124/60
f 62/106/61 60/104/61 69/125/61 70/110/61
f 56/114/62 66/112/62 72/126/62 68/128/62
f 67/129/63 68/120/63 70/123/63 69/130/63
f 65/131/64 55/116/64 61/119/64 63/132/64
f 73/133/65 74/134/65 76/135/65 75/136/65
f 75/136/66 76/135/66 78/137/66 77/138/66
f 77/138/67 78/137/67 80/139/67 79/140/67
f 79/140/68 80/139/68 82/141/68 81/142/68
f 82/141/69 80/139/69 88/143/69 89/144/69
f 81/142/70 82/141/70 84/145/70 83/146/70
f 83/146/71 84/145/71 74/147/71 73/148/71
f 73/149/72 75/150/72 77/151/72 79/152/72
f 86/153/73 90/154/73 89/155/73 88/156/73
f 78/137/74 76/135/74 85/157/74 87/158/74
f 84/145/75 82/141/75 89/144/75 90/159/75
f 76/135/76 74/134/76 86/160/76 85/157/76
f 80/139/77 78/137/77 87/158/77 88/143/77
f 74/147/78 84/145/78 90/159/78 86/161/78
f 85/162/79 86/153/79 88/156/79 87/163/79
f 83/164/80 73/149/80 79/152/80 81/165/80
f 91/166/81 92/167/81 94/168/81 93/169/81
f 93/169/82 94/168/82 96/170/82 95/171/82
f 95/171/83 96/170/83 98/172/83 97/173/83
f 97/173/84 98/172/84 100/174/84 99/175/84
f 100/174/85 98/172/85 106/176/85 107/177/85
f 99/175/86 100/174/86 102/178/86 101/179/86
f 101/179/87 102/178/87 92/180/87 91/181/87
f 91/182/88 93/183/88 95/184/88 97/185/88
f 104/186/89 108/187/89 107/188/89 106/189/89
f 96/170/90 94/168/90 103/190/90 105/191/90
f 102/178/91 100/174/91 107/177/91 108/192/91
f 94/168/92 92/167/92 104/193/92 103/190/92
f 98/172/93 96/170/93 105/191/93 106/176/93
f 92/180/94 102/178/94 108/192/94 104/194/94
f 103/195/95 104/186/95 106/189/95 105/196/95
f 101/197/96 91/182/96 97/185/96 99/198/96
f 109/199/97 110/200/97 112/201/97 111/202/97
f 111/202/98 112/201/98 114/203/98 113/204/98
f 113/204/99 114/203/99 116/205/99 115/206/99
f 115/206/100 116/205/100 118/207/100 117/208/100
f 118/207/101 116/205/101 124/209/101 125/210/101
f 117/208/102 118/207/102 120/211/102 119/212/102
f 119/212/103 120/211/103 110/213/103 109/214/103
f 109/215/104 111/216/104 113/217/104 115/218/104
f 122/219/105 126/220/105 125/221/105 124/222/105
f 114/203/106 112/201/106 121/223/106 123/224/106
f 120/211/107 118/207/107 125/210/107 126/225/107
f 112/201/108 110/200/108 122/226/108 121/223/108
f 116/205/109 114/203/109 123/224/109 124/209/109
f 110/213/110 120/211/110 126/225/110 122/227/110
f 121/228/111 122/219/111 124/222/111 123/229/111
f 119/230/112 109/215/112 115/218/112 117/231/112
